<?xml version="1.0" encoding="utf-8"?>
<!-- Generator: Adobe Illustrator 15.0.0, SVG Export Plug-In  -->
<!DOCTYPE svg PUBLIC "-//W3C//DTD SVG 1.1//EN" "http://www.w3.org/Graphics/SVG/1.1/DTD/svg11.dtd" [
	<!ENTITY ns_flows "http://ns.adobe.com/Flows/1.0/">
]>
<svg version="1.1"
	 xmlns="http://www.w3.org/2000/svg" xmlns:xlink="http://www.w3.org/1999/xlink" xmlns:a="http://ns.adobe.com/AdobeSVGViewerExtensions/3.0/"
	 x="0px" y="0px" width="166px" height="85px" viewBox="0 0 166 85" overflow="visible" enable-background="new 0 0 166 85"
	 xml:space="preserve">
<defs>
</defs>
<path fill="#FFFFFF" d="M9.431,82.827c0,1.325-0.944,2.128-2.583,2.128H3.734l0.961-6.045H7.75c1.036,0,1.607,0.497,1.607,1.366
	c0,0.613-0.24,1.035-0.597,1.333C9.158,81.859,9.431,82.248,9.431,82.827z M7.626,82.894c0-0.248-0.157-0.43-0.464-0.43H5.945
	l-0.166,1.002h1.284C7.427,83.465,7.626,83.258,7.626,82.894z M6.293,80.318l-0.157,0.944h0.803c0.389,0,0.621-0.215,0.621-0.53
	c0-0.265-0.183-0.414-0.497-0.414H6.293z"/>
<path fill="#FFFFFF" d="M26.749,78.911l-0.961,6.045h-1.822l0.961-6.045H26.749z"/>
<path fill="#FFFFFF" d="M45.837,81.966l1.491,2.989h-2.153l-0.919-2.104h-0.604l-0.331,2.104h-1.822l0.96-6.045h1.822l-0.364,2.286
	h0.662l1.615-2.286h1.954l-2.244,3.171L45.837,81.966z"/>
<path fill="#FFFFFF" d="M64.754,80.484l-0.116,0.729h2.245l-0.24,1.491h-2.244l-0.108,0.679h2.741l-0.257,1.573H62.22l0.961-6.045
	h4.555l-0.249,1.573H64.754z"/>
<path fill="#FFFFFF" d="M94.383,80.484c-0.994,0-1.582,0.663-1.582,1.748c0,0.729,0.389,1.151,1.118,1.151
	c0.604,0,1.217-0.141,1.689-0.389l0.323,1.449c-0.663,0.381-1.499,0.596-2.319,0.596c-1.73,0-2.658-0.919-2.658-2.518
	c0-2.286,1.358-3.693,3.693-3.693c0.911,0,1.681,0.273,2.145,0.754l-1.019,1.3C95.476,80.625,94.979,80.484,94.383,80.484z"/>
<path fill="#FFFFFF" d="M116.368,83.382l-0.257,1.573h-4.422l0.961-6.045h1.822l-0.712,4.472H116.368z"/>
<path fill="#FFFFFF" d="M136.488,82.554c-0.249,1.59-1.325,2.484-2.973,2.484c-1.64,0-2.418-0.895-2.169-2.484l0.58-3.644h1.822
	l-0.596,3.727c-0.075,0.48,0.166,0.745,0.638,0.745c0.472,0,0.787-0.265,0.861-0.745l0.597-3.727h1.821L136.488,82.554z"/>
<path fill="#FFFFFF" d="M157.188,82.827c0,1.325-0.944,2.128-2.583,2.128h-3.114l0.96-6.045h3.056c1.035,0,1.606,0.497,1.606,1.366
	c0,0.613-0.24,1.035-0.596,1.333C156.914,81.859,157.188,82.248,157.188,82.827z M155.382,82.894c0-0.248-0.158-0.43-0.464-0.43
	h-1.218l-0.165,1.002h1.283C155.183,83.465,155.382,83.258,155.382,82.894z M154.049,80.318l-0.157,0.944h0.803
	c0.389,0,0.621-0.215,0.621-0.53c0-0.265-0.183-0.414-0.497-0.414H154.049z"/>
<path fill="#FAAC57" d="M80.558,48.443c-0.628-0.01-1.24-0.237-1.724-0.637l-5.623-4.661c-0.749-0.622-1.121-1.605-0.97-2.567
	l3.921-25.004l-12.98,3.893l3.211,2.663c0.75,0.622,1.12,1.604,0.97,2.565l-1.131,7.215c-0.155,0.984-0.829,1.814-1.76,2.167
	c-0.329,0.124-0.676,0.183-1.028,0.178l0,0c-0.627-0.011-1.239-0.236-1.723-0.637L42.633,17.787
	c-0.789-0.653-1.152-1.683-0.947-2.687c0.203-1.003,0.939-1.81,1.921-2.104L86.534,0.117C86.807,0.036,87.092-0.005,87.378,0
	c0.653,0.012,1.284,0.255,1.776,0.684c0.722,0.631,1.065,1.572,0.916,2.519l-6.725,42.897c-0.154,0.982-0.828,1.812-1.76,2.163
	C81.257,48.389,80.91,48.449,80.558,48.443z"/>
<path fill="#ED3341" d="M88.28,49.667c-0.61-0.01-1.209-0.227-1.686-0.608c-0.777-0.621-1.163-1.619-1.007-2.601L92.4,3.577
	c0.151-0.947,0.768-1.738,1.649-2.114c0.362-0.156,0.745-0.23,1.138-0.224c0.549,0.009,1.079,0.179,1.53,0.491l36.874,25.475
	c0.843,0.582,1.294,1.576,1.18,2.593c-0.116,1.019-0.778,1.886-1.73,2.266l-23.036,9.178c-0.344,0.137-0.705,0.204-1.075,0.197
	c-0.61-0.009-1.208-0.226-1.686-0.606c-0.777-0.622-1.164-1.619-1.007-2.603l1.147-7.213c0.152-0.96,0.809-1.781,1.713-2.141
	l3.875-1.544l-11.149-7.702L97.85,44.625c-0.151,0.962-0.808,1.782-1.712,2.142l-6.785,2.704
	C89.01,49.608,88.649,49.674,88.28,49.667z"/>
<path fill="#FAAC57" d="M17.328,58.759c-0.054,0.332-0.34,0.575-0.676,0.575h-4.937L9.359,74.12
	c-0.053,0.332-0.339,0.577-0.676,0.577H3.811c-0.2,0-0.391-0.087-0.521-0.24c-0.13-0.152-0.187-0.354-0.155-0.552l2.321-14.571
	H0.685c-0.201,0-0.392-0.088-0.521-0.241c-0.13-0.153-0.187-0.355-0.154-0.554l0.659-4.037c0.054-0.331,0.34-0.574,0.676-0.574
	h15.967c0.201,0,0.392,0.088,0.521,0.241c0.13,0.153,0.187,0.355,0.154,0.553L17.328,58.759z"/>
<path fill="#FAAC57" d="M49.423,53.927c0.233,0,0.451,0.119,0.576,0.316c0.126,0.196,0.143,0.443,0.045,0.655l-9.014,19.542
	c-0.112,0.243-0.354,0.398-0.622,0.398h-5.69c-0.361,0-0.661-0.281-0.683-0.642l-0.7-11.166l-4.048,11.353
	c-0.097,0.273-0.355,0.455-0.645,0.455h-5.98c-0.34,0-0.629-0.25-0.677-0.588l-2.792-19.542c-0.028-0.197,0.031-0.396,0.161-0.545
	c0.13-0.15,0.318-0.237,0.517-0.237h5.193c0.351,0,0.646,0.266,0.681,0.615l1.218,11.961l4.724-12.14
	c0.103-0.263,0.356-0.437,0.638-0.437h4.731c0.357,0,0.654,0.274,0.683,0.631l0.945,11.888l5.031-12.097
	c0.106-0.255,0.355-0.422,0.632-0.422H49.423z"/>
<path fill="#FAAC57" d="M57.376,53.927c0.2,0,0.391,0.088,0.521,0.241c0.13,0.152,0.187,0.354,0.155,0.552l-3.083,19.399
	c-0.053,0.333-0.339,0.577-0.676,0.577H49.42c-0.2,0-0.391-0.087-0.521-0.24c-0.13-0.152-0.187-0.354-0.155-0.552l3.082-19.399
	c0.053-0.333,0.339-0.578,0.676-0.578H57.376z"/>
<path fill="#FAAC57" d="M78.579,53.927c0.201,0,0.391,0.088,0.521,0.241c0.13,0.153,0.187,0.354,0.155,0.552l-3.11,19.4
	c-0.053,0.333-0.339,0.576-0.676,0.576h-3.983c-0.253,0-0.486-0.14-0.604-0.364L65.298,63.8l-1.643,10.32
	c-0.053,0.332-0.339,0.577-0.676,0.577h-4.873c-0.2,0-0.391-0.087-0.521-0.24c-0.13-0.152-0.187-0.354-0.156-0.552l3.083-19.4
	c0.053-0.333,0.339-0.578,0.676-0.578h4.736c0.261,0,0.5,0.149,0.615,0.384l4.934,10.086l1.559-9.892
	c0.052-0.333,0.339-0.578,0.676-0.578H78.579z"/>
<path fill="#ED3341" d="M103.859,59.789c0,5.234-3.442,8.364-9.304,8.364h-3.271l-0.96,5.968c-0.053,0.332-0.34,0.576-0.676,0.576
	h-4.875c-0.2,0-0.39-0.088-0.521-0.241c-0.13-0.152-0.187-0.354-0.156-0.552l3.083-19.4c0.053-0.332,0.339-0.577,0.676-0.577h9.26
	C101.499,53.928,103.859,56.062,103.859,59.789z M97.515,60.67c0-1.053-0.541-1.622-1.565-1.622h-3.243l-0.626,3.984h3.271
	C96.718,63.032,97.515,62.121,97.515,60.67z"/>
<path fill="#ED3341" d="M115.073,71.425h-7.141l-1.271,2.865c-0.11,0.248-0.355,0.407-0.626,0.407h-4.717
	c-0.236,0-0.456-0.122-0.581-0.322c-0.125-0.201-0.138-0.452-0.034-0.663l9.487-19.4c0.115-0.235,0.354-0.384,0.615-0.384h6.464
	c0.327,0,0.608,0.231,0.672,0.553l3.827,19.4c0.039,0.201-0.013,0.409-0.143,0.567c-0.13,0.158-0.324,0.25-0.529,0.25h-4.856
	c-0.33,0-0.614-0.237-0.673-0.562L115.073,71.425z M114.163,66.304l-1.109-6.088h-0.2l-2.674,6.088H114.163z"/>
<path fill="#ED3341" d="M138.737,69.291c0.201,0,0.392,0.088,0.521,0.241c0.13,0.153,0.187,0.356,0.154,0.554l-0.658,4.037
	c-0.054,0.332-0.34,0.575-0.676,0.575H124.27c-0.2,0-0.391-0.088-0.521-0.241c-0.13-0.152-0.187-0.354-0.155-0.552l3.083-19.4
	c0.053-0.333,0.339-0.578,0.676-0.578h4.873c0.201,0,0.391,0.088,0.521,0.241s0.187,0.354,0.156,0.552l-2.321,14.571H138.737z"/>
<path fill="#ED3341" d="M165.43,53.927c0.191,0,0.374,0.08,0.504,0.221c0.129,0.141,0.194,0.33,0.178,0.521l-1.621,19.399
	c-0.03,0.355-0.326,0.628-0.682,0.628h-4.431c-0.191,0-0.374-0.08-0.504-0.221c-0.129-0.141-0.194-0.331-0.178-0.521l0.876-10.497
	l-4.38,7.073c-0.125,0.202-0.345,0.324-0.582,0.324h-3.149c-0.303,0-0.569-0.198-0.656-0.488l-2.073-6.91l-2.495,10.709
	c-0.072,0.31-0.348,0.529-0.666,0.529h-4.396c-0.209,0-0.406-0.096-0.536-0.26c-0.13-0.164-0.178-0.378-0.129-0.582l4.57-19.4
	c0.073-0.31,0.349-0.528,0.667-0.528h4.676c0.298,0,0.562,0.193,0.652,0.477l3.035,9.539l6.143-9.697
	c0.125-0.198,0.344-0.318,0.578-0.318H165.43z"/>
</svg>
